<svg width="28" height="28" viewBox="0 0 28 28" fill="none" xmlns="http://www.w3.org/2000/svg">
<path d="M19.8333 21.0001L19.8333 18.6667" stroke="#0F121C" stroke-width="1.5" stroke-linecap="round"/>
<path d="M14 21L14 17.5" stroke="#0F121C" stroke-width="1.5" stroke-linecap="round"/>
<path d="M8.16669 21.0001L8.16669 15.1667" stroke="#0F121C" stroke-width="1.5" stroke-linecap="round"/>
<path d="M7 8.16675C10.7299 11.9798 15.4394 12.9282 19.9982 11.6572M18.3027 9.8833L20.722 11.0699C21.0089 11.2106 21.0863 11.5364 20.895 11.7976L19.2814 14.0001" stroke="#1B1616" stroke-width="1.5" stroke-linecap="round" stroke-linejoin="round"/>
<path d="M2.91669 14.0001C2.91669 8.77535 2.91669 6.16298 4.5398 4.53986C6.16292 2.91675 8.77529 2.91675 14 2.91675C19.2248 2.91675 21.8371 2.91675 23.4602 4.53986C25.0834 6.16298 25.0834 8.77535 25.0834 14.0001C25.0834 19.2248 25.0834 21.8372 23.4602 23.4603C21.8371 25.0834 19.2248 25.0834 14 25.0834C8.77529 25.0834 6.16292 25.0834 4.5398 23.4603C2.91669 21.8372 2.91669 19.2248 2.91669 14.0001Z" stroke="#0F121C" stroke-width="1.5" stroke-linejoin="round"/>
</svg>
