<svg width="20" height="20" viewBox="0 0 20 20" fill="none" xmlns="http://www.w3.org/2000/svg">
<g clip-path="url(#clip0_1_168)">
<path d="M15.8254 15.8333H15.8333M15.8254 15.8333C15.3065 16.3479 14.3661 16.2197 13.7066 16.2197C12.8971 16.2197 12.5073 16.3781 11.9295 16.9558C11.4376 17.4478 10.7781 18.3333 10 18.3333C9.22191 18.3333 8.56243 17.4478 8.07047 16.9558C7.49273 16.3781 7.10291 16.2197 6.29338 16.2197C5.6339 16.2197 4.69348 16.3479 4.17457 15.8333C3.6515 15.3146 3.78023 14.3703 3.78023 13.7066C3.78023 12.8678 3.59679 12.4821 2.99948 11.8848C2.11094 10.9963 1.66668 10.552 1.66666 9.99994C1.66667 9.44788 2.11093 9.00362 2.99946 8.1151C3.53266 7.58189 3.78023 7.05352 3.78023 6.29334C3.78023 5.63384 3.65208 4.69341 4.16666 4.1745C4.68535 3.65145 5.62967 3.78017 6.2934 3.78017C7.05356 3.78017 7.58193 3.53263 8.11512 2.99943C9.00366 2.1109 9.44793 1.66663 10 1.66663C10.5521 1.66663 10.9963 2.1109 11.8849 2.99943C12.418 3.53252 12.9462 3.78017 13.7066 3.78017C14.3661 3.78017 15.3065 3.65202 15.8255 4.16663C16.3485 4.68532 16.2198 5.62962 16.2198 6.29334C16.2198 7.13211 16.4032 7.51777 17.0005 8.1151C17.8891 9.00362 18.3333 9.44788 18.3333 9.99994C18.3333 10.552 17.889 10.9963 17.0005 11.8848C16.4032 12.4821 16.2198 12.8678 16.2198 13.7066C16.2198 14.3703 16.3485 15.3146 15.8254 15.8333Z" stroke="#1B1616" stroke-width="1.5"/>
<path d="M7.5 10.744C7.5 10.744 8.5 11.2872 9 12.0833C9 12.0833 10.5 8.95829 12.5 7.91663" stroke="#1B1616" stroke-width="1.5" stroke-linecap="round" stroke-linejoin="round"/>
</g>
<defs>
<clipPath id="clip0_1_168">
<rect width="20" height="20" fill="white"/>
</clipPath>
</defs>
</svg>
