<svg width="20" height="20" viewBox="0 0 20 20" fill="none" xmlns="http://www.w3.org/2000/svg">
<g clip-path="url(#clip0_1_98)">
<g filter="url(#filter0_d_1_98)">
<path d="M3.7124 15.043C3.96624 14.7891 3.96624 14.3776 3.7124 14.1237C3.45856 13.8699 3.047 13.8699 2.79316 14.1237L3.25278 14.5833L3.7124 15.043ZM4.69537 17.4685L5.15499 17.9281L5.15499 17.9281L4.69537 17.4685ZM5.87628 17.2068C6.13012 16.953 6.13012 16.5414 5.87628 16.2876C5.62244 16.0338 5.21088 16.0338 4.95704 16.2876L5.41666 16.7472L5.87628 17.2068ZM3.25278 14.5833L2.79316 14.1237L2.07186 14.845L2.53148 15.3046L2.9911 15.7643L3.7124 15.043L3.25278 14.5833ZM4.69537 17.4685L5.15499 17.9281L5.87628 17.2068L5.41666 16.7472L4.95704 16.2876L4.23575 17.0089L4.69537 17.4685ZM2.53148 17.4685L2.07186 17.9281C2.92324 18.7795 4.30361 18.7795 5.15499 17.9281L4.69537 17.4685L4.23575 17.0089C3.89205 17.3526 3.3348 17.3526 2.9911 17.0089L2.53148 17.4685ZM2.53148 15.3046L2.07186 14.845C1.22048 15.6964 1.22048 17.0768 2.07186 17.9281L2.53148 17.4685L2.9911 17.0089C2.6474 16.6652 2.6474 16.108 2.9911 15.7643L2.53148 15.3046Z" fill="#0F121C"/>
<path d="M14.1237 2.79317C13.8699 3.04701 13.8699 3.45857 14.1237 3.71241C14.3775 3.96625 14.7891 3.96625 15.0429 3.71241L14.5833 3.25279L14.1237 2.79317ZM17.4685 4.69538L17.9281 5.155L17.9281 5.155L17.4685 4.69538ZM16.2876 4.95706C16.0338 5.2109 16.0338 5.62246 16.2876 5.8763C16.5414 6.13014 16.953 6.13014 17.2068 5.8763L16.7472 5.41668L16.2876 4.95706ZM14.5833 3.25279L15.0429 3.71241L15.7642 2.99112L15.3046 2.5315L14.845 2.07188L14.1237 2.79317L14.5833 3.25279ZM17.4685 4.69538L17.0089 4.23576L16.2876 4.95706L16.7472 5.41668L17.2068 5.8763L17.9281 5.155L17.4685 4.69538ZM17.4685 2.5315L17.0089 2.99112C17.3526 3.33482 17.3526 3.89206 17.0089 4.23576L17.4685 4.69538L17.9281 5.155C18.7795 4.30362 18.7795 2.92326 17.9281 2.07188L17.4685 2.5315ZM15.3046 2.5315L15.7642 2.99112C16.1079 2.64742 16.6652 2.64742 17.0089 2.99112L17.4685 2.5315L17.9281 2.07188C17.0767 1.2205 15.6964 1.2205 14.845 2.07188L15.3046 2.5315Z" fill="#0F121C"/>
<path d="M6.45834 11.4584C6.45834 11.4584 7.21289 10.4403 7.70834 10.2084C9.20404 9.50824 9.50823 9.20405 10.2083 7.70835C10.4403 7.2129 11.4583 6.45835 11.4583 6.45835M8.54167 13.5417C8.54167 13.5417 9.55976 12.7871 9.79167 12.2917C10.4918 10.796 10.796 10.4918 12.2917 9.79169C12.7871 9.55977 13.5417 8.54169 13.5417 8.54169" stroke="#0F121C" stroke-width="1.3" stroke-linecap="round" stroke-linejoin="round"/>
<path d="M14.1667 8.60383L13.7071 9.06345V9.06345L14.1667 8.60383ZM11.3962 5.83334L11.8558 5.37372L11.3962 5.83334ZM14.1667 3.06286L14.6263 2.60324V2.60324L14.1667 3.06286ZM16.9372 5.83334L16.4775 6.29296L16.4775 6.29296L16.9372 5.83334ZM12.7814 2.08334V1.43334H12.7814L12.7814 2.08334ZM10.4167 4.4481H11.0667V4.4481L10.4167 4.4481ZM15.5519 9.58334L15.5519 10.2333H15.5519L15.5519 9.58334ZM17.9167 7.21859H18.5667V7.21859L17.9167 7.21859ZM14.1667 8.60383L14.6263 8.14421L11.8558 5.37372L11.3962 5.83334L10.9366 6.29296L13.7071 9.06345L14.1667 8.60383ZM14.1667 3.06286L13.7071 3.52248L16.4775 6.29296L16.9372 5.83334L17.3968 5.37372L14.6263 2.60324L14.1667 3.06286ZM11.3962 3.06286L11.8558 3.52248C12.1953 3.18298 12.4047 2.97557 12.5758 2.84499C12.732 2.72585 12.7778 2.73334 12.7814 2.73334L12.7814 2.08334L12.7814 1.43334C12.3793 1.43334 12.059 1.60409 11.7873 1.81146C11.5305 2.00738 11.2501 2.28973 10.9366 2.60324L11.3962 3.06286ZM14.1667 3.06286L14.6263 2.60324C14.3128 2.28973 14.0324 2.00738 13.7756 1.81146C13.5038 1.60409 13.1836 1.43334 12.7814 1.43334V2.08334V2.73334C12.785 2.73334 12.8309 2.72585 12.987 2.84499C13.1582 2.97557 13.3676 3.18298 13.7071 3.52248L14.1667 3.06286ZM11.3962 5.83334L11.8558 5.37372C11.5163 5.03423 11.3089 4.82486 11.1783 4.65371C11.0592 4.49756 11.0667 4.4517 11.0667 4.4481H10.4167L9.76667 4.4481C9.76667 4.85023 9.93742 5.17048 10.1448 5.44227C10.3407 5.69906 10.6231 5.97945 10.9366 6.29296L11.3962 5.83334ZM11.3962 3.06286L10.9366 2.60324C10.6231 2.91675 10.3407 3.19714 10.1448 3.45393C9.93742 3.72572 9.76667 4.04597 9.76667 4.4481H10.4167L11.0667 4.4481C11.0667 4.4445 11.0592 4.39864 11.1783 4.24249C11.3089 4.07134 11.5163 3.86198 11.8558 3.52248L11.3962 3.06286ZM16.9372 8.60383L16.4775 8.14421C16.138 8.48371 15.9287 8.69112 15.7575 8.8217C15.6014 8.94084 15.5555 8.93334 15.5519 8.93334L15.5519 9.58334L15.5519 10.2333C15.954 10.2333 16.2743 10.0626 16.5461 9.85523C16.8029 9.65931 17.0833 9.37696 17.3968 9.06345L16.9372 8.60383ZM14.1667 8.60383L13.7071 9.06345C14.0206 9.37696 14.301 9.65931 14.5577 9.85523C14.8295 10.0626 15.1498 10.2333 15.5519 10.2333L15.5519 9.58334L15.5519 8.93334C15.5483 8.93334 15.5025 8.94084 15.3463 8.8217C15.1752 8.69112 14.9658 8.48371 14.6263 8.14421L14.1667 8.60383ZM16.9372 8.60383L17.3968 9.06345C17.7103 8.74994 17.9926 8.46954 18.1886 8.21275C18.3959 7.94097 18.5667 7.62071 18.5667 7.21859H17.9167H17.2667C17.2667 7.22219 17.2742 7.26805 17.155 7.4242C17.0244 7.59535 16.817 7.80471 16.4775 8.14421L16.9372 8.60383ZM16.9372 5.83334L16.4775 6.29296C16.817 6.63246 17.0244 6.84182 17.155 7.01297C17.2742 7.16912 17.2667 7.21499 17.2667 7.21859H17.9167L18.5667 7.21859C18.5667 6.81646 18.3959 6.49621 18.1886 6.22442C17.9926 5.96763 17.7103 5.68724 17.3968 5.37372L16.9372 5.83334Z" fill="#0F121C"/>
<path d="M8.60381 14.1667L9.06343 13.7071H9.06343L8.60381 14.1667ZM5.83333 11.3962L5.37371 11.8558L5.83333 11.3962ZM3.06284 14.1667L2.60322 14.6263V14.6263L3.06284 14.1667ZM5.83333 16.9372L6.29295 16.4776L6.29295 16.4776L5.83333 16.9372ZM2.08333 12.7814L1.43333 12.7814V12.7814H2.08333ZM4.44809 10.4167L4.44809 11.0667H4.44809V10.4167ZM9.58333 15.5519L10.2333 15.5519V15.5519L9.58333 15.5519ZM7.21857 17.9167L7.21857 18.5667H7.21857V17.9167ZM8.60381 14.1667L9.06343 13.7071L6.29295 10.9366L5.83333 11.3962L5.37371 11.8558L8.14419 14.6263L8.60381 14.1667ZM3.06284 14.1667L2.60322 14.6263L5.37371 17.3968L5.83333 16.9372L6.29295 16.4776L3.52246 13.7071L3.06284 14.1667ZM3.06284 11.3962L2.60322 10.9366C2.28971 11.2501 2.00737 11.5305 1.81144 11.7873C1.60408 12.0591 1.43333 12.3793 1.43333 12.7814L2.08333 12.7814L2.73333 12.7814C2.73333 12.7778 2.72583 12.732 2.84497 12.5758C2.97555 12.4047 3.18296 12.1953 3.52246 11.8558L3.06284 11.3962ZM3.06284 14.1667L3.52246 13.7071C3.18296 13.3676 2.97555 13.1582 2.84497 12.9871C2.72583 12.8309 2.73333 12.785 2.73333 12.7814H2.08333H1.43333C1.43333 13.1836 1.60408 13.5038 1.81144 13.7756C2.00737 14.0324 2.28971 14.3128 2.60322 14.6263L3.06284 14.1667ZM5.83333 11.3962L6.29295 10.9366C5.97944 10.6231 5.69904 10.3407 5.44225 10.1448C5.17047 9.93744 4.85021 9.76669 4.44809 9.76669L4.44809 10.4167V11.0667C4.45169 11.0667 4.49755 11.0592 4.6537 11.1783C4.82485 11.3089 5.03421 11.5163 5.37371 11.8558L5.83333 11.3962ZM3.06284 11.3962L3.52246 11.8558C3.86196 11.5163 4.07132 11.3089 4.24247 11.1783C4.39862 11.0592 4.44448 11.0667 4.44809 11.0667L4.44809 10.4167V9.76669C4.04596 9.76669 3.7257 9.93743 3.45392 10.1448C3.19713 10.3407 2.91673 10.6231 2.60322 10.9366L3.06284 11.3962ZM8.60381 16.9372L9.06343 17.3968C9.37694 17.0833 9.65929 16.8029 9.85521 16.5461C10.0626 16.2743 10.2333 15.9541 10.2333 15.5519L9.58333 15.5519L8.93333 15.5519C8.93333 15.5555 8.94082 15.6014 8.82169 15.7575C8.6911 15.9287 8.48369 16.1381 8.14419 16.4776L8.60381 16.9372ZM8.60381 14.1667L8.14419 14.6263C8.48369 14.9658 8.6911 15.1752 8.82169 15.3463C8.94082 15.5025 8.93333 15.5483 8.93333 15.5519L9.58333 15.5519L10.2333 15.5519C10.2333 15.1498 10.0626 14.8295 9.85521 14.5578C9.65929 14.301 9.37694 14.0206 9.06343 13.7071L8.60381 14.1667ZM8.60381 16.9372L8.14419 16.4776C7.8047 16.8171 7.59533 17.0245 7.42418 17.155C7.26803 17.2742 7.22217 17.2667 7.21857 17.2667V17.9167V18.5667C7.6207 18.5667 7.94095 18.3959 8.21274 18.1886C8.46953 17.9927 8.74992 17.7103 9.06343 17.3968L8.60381 16.9372ZM5.83333 16.9372L5.37371 17.3968C5.68722 17.7103 5.96762 17.9926 6.2244 18.1886C6.49619 18.3959 6.81645 18.5667 7.21857 18.5667L7.21857 17.9167V17.2667C7.21497 17.2667 7.16911 17.2742 7.01296 17.155C6.84181 17.0245 6.63245 16.8171 6.29295 16.4776L5.83333 16.9372Z" fill="#0F121C"/>
</g>
</g>
<defs>
<filter id="filter0_d_1_98" x="-2.56667" y="1.43335" width="25.1333" height="25.1333" filterUnits="userSpaceOnUse" color-interpolation-filters="sRGB">
<feFlood flood-opacity="0" result="BackgroundImageFix"/>
<feColorMatrix in="SourceAlpha" type="matrix" values="0 0 0 0 0 0 0 0 0 0 0 0 0 0 0 0 0 0 127 0" result="hardAlpha"/>
<feOffset dy="4"/>
<feGaussianBlur stdDeviation="2"/>
<feComposite in2="hardAlpha" operator="out"/>
<feColorMatrix type="matrix" values="0 0 0 0 0 0 0 0 0 0 0 0 0 0 0 0 0 0 0.25 0"/>
<feBlend mode="normal" in2="BackgroundImageFix" result="effect1_dropShadow_1_98"/>
<feBlend mode="normal" in="SourceGraphic" in2="effect1_dropShadow_1_98" result="shape"/>
</filter>
<clipPath id="clip0_1_98">
<rect width="20" height="20" fill="white"/>
</clipPath>
</defs>
</svg>
