<svg width="28" height="28" viewBox="0 0 28 28" fill="none" xmlns="http://www.w3.org/2000/svg">
<path d="M9.33356 25.6668H21.0002C23.2001 25.6668 24.3001 25.6668 24.9835 24.9834C25.6669 24.3 25.6669 23.2001 25.6669 21.0002V19.8335C25.6669 17.6336 25.6669 16.5337 24.9835 15.8502C24.3001 15.1668 23.2001 15.1668 21.0002 15.1668L17.5002 15.1668C15.3003 15.1668 14.2004 15.1668 13.517 14.4834C12.8336 13.8 12.8336 12.7001 12.8336 10.5002V7.00016C12.8336 4.80027 12.8336 3.70033 12.1501 3.01691C11.4667 2.3335 10.3668 2.3335 8.16689 2.3335L7.00022 2.3335C4.80034 2.3335 3.70039 2.3335 3.01697 3.01691C2.33356 3.70033 2.33356 4.80028 2.33356 7.00016L2.33356 18.6668C2.33356 21.9667 2.33356 23.6166 3.35868 24.6417C4.38381 25.6668 6.03373 25.6668 9.33356 25.6668Z" stroke="#1B1616" stroke-width="1.5" stroke-linecap="round" stroke-linejoin="round"/>
</svg>
