<svg width="28" height="28" viewBox="0 0 28 28" fill="none" xmlns="http://www.w3.org/2000/svg">
<path d="M1.80163 14.5606C1.50948 14.8542 1.5107 15.3291 1.80434 15.6213C2.09799 15.9134 2.57286 15.9122 2.865 15.6185L2.33331 15.0896L1.80163 14.5606ZM13.3348 2.43167L13.5364 1.70925V1.70925L13.3348 2.43167ZM16.1194 3.20841L16.3209 2.48599V2.48599L16.1194 3.20841ZM17.3212 4.00634L16.7386 4.47863V4.47863L17.3212 4.00634ZM24.0311 14.3744L23.3485 14.685V14.685L24.0311 14.3744ZM10.0834 4.13896L9.53184 3.63079V3.63079L10.0834 4.13896ZM12.6942 7.86136L12.572 7.12138H12.572L12.6942 7.86136ZM16.024 9.39962L16.6189 8.9429L16.6189 8.94289L16.024 9.39962ZM17.1647 13.5728L16.4193 13.6553V13.6553L17.1647 13.5728ZM18.0409 15.8301L17.6198 16.4508C17.935 16.6646 18.3604 16.6082 18.6091 16.3197C18.8577 16.0312 18.8505 15.6021 18.5925 15.322L18.0409 15.8301ZM8.99435 16.6768C8.73765 17.0019 8.79308 17.4736 9.11815 17.7303C9.44323 17.987 9.91486 17.9315 10.1716 17.6065L9.58296 17.1416L8.99435 16.6768ZM8.87501 6.2607L8.13615 6.38954V6.38954L8.87501 6.2607ZM25.4078 20.5378L26.1044 20.8157V20.8157L25.4078 20.5378ZM20.459 23.6199L20.6936 24.3323V24.3323L20.459 23.6199ZM14.5378 7.72807L14.8234 7.03456L14.8234 7.03456L14.5378 7.72807ZM11.9052 23.7991L12.4437 24.3211L12.4437 24.3211L11.9052 23.7991ZM2.88492 23.1911C2.60427 22.8865 2.1298 22.867 1.82515 23.1477C1.52051 23.4283 1.50105 23.9028 1.7817 24.2074L2.33331 23.6993L2.88492 23.1911ZM12.1095 23.5135L12.3826 22.815C12.0403 22.6812 11.6514 22.8151 11.4641 23.1314L12.1095 23.5135ZM12.0694 23.5812L11.4241 23.1991L11.4241 23.1991L12.0694 23.5812ZM12.5772 14.9664L12.8064 15.6805V15.6805L12.5772 14.9664ZM13.3348 2.43167L13.1333 3.15409L15.9178 3.93083L16.1194 3.20841L16.3209 2.48599L13.5364 1.70925L13.3348 2.43167ZM17.3212 4.00634L16.7386 4.47863C19.7595 8.20523 21.6995 11.0621 23.3485 14.685L24.0311 14.3744L24.7137 14.0637C22.993 10.283 20.9694 7.31578 17.9038 3.53405L17.3212 4.00634ZM17.1647 13.5728L16.4193 13.6553C16.5182 14.5487 16.806 15.5967 17.4893 16.3383L18.0409 15.8301L18.5925 15.322C18.2241 14.9221 17.9942 14.2489 17.9102 13.4902L17.1647 13.5728ZM16.024 9.39962L15.4291 9.85634C15.6576 10.154 15.8182 10.3633 15.9311 10.5202C16.0549 10.6921 16.0762 10.741 16.0725 10.7318L16.7695 10.4548L17.4665 10.1779C17.3936 9.99435 17.2675 9.80923 17.1485 9.64389C17.0187 9.46362 16.8411 9.23243 16.6189 8.9429L16.024 9.39962ZM17.1647 13.5728L17.9102 13.4902C17.8018 12.5113 17.7197 11.7698 17.656 11.2518C17.6242 10.9933 17.5961 10.7826 17.5707 10.6222C17.5505 10.4947 17.5203 10.3134 17.4665 10.1779L16.7695 10.4548L16.0725 10.7318C16.0533 10.6835 16.0628 10.6902 16.0892 10.857C16.1104 10.991 16.136 11.1809 16.1672 11.4348C16.2295 11.9416 16.3104 12.6719 16.4193 13.6553L17.1647 13.5728ZM10.0834 4.13896L9.53184 3.63079C9.10843 4.09039 8.72055 4.50723 8.46959 4.90276C8.19154 5.34101 8.03667 5.81901 8.13615 6.38954L8.87501 6.2607L9.61386 6.13186C9.59457 6.02127 9.60151 5.91861 9.73617 5.70636C9.89793 5.45142 10.1737 5.14795 10.635 4.64714L10.0834 4.13896ZM24.0311 14.3744L23.3485 14.685C24.0401 16.2046 24.519 17.2624 24.7564 18.1463C24.9827 18.9884 24.9709 19.6091 24.7113 20.2598L25.4078 20.5378L26.1044 20.8157C26.5121 19.794 26.4933 18.83 26.205 17.7571C25.928 16.7258 25.3848 15.5381 24.7137 14.0637L24.0311 14.3744ZM20.459 23.6199L20.6936 24.3323C22.0938 23.8713 23.2446 23.4956 24.1186 23.0088C25.0412 22.4948 25.697 21.8368 26.1044 20.8157L25.4078 20.5378L24.7113 20.2598C24.4513 20.9112 24.06 21.3243 23.3886 21.6984C22.6686 22.0995 21.6787 22.4287 20.2245 22.9075L20.459 23.6199ZM12.6942 7.86136L12.8164 8.60134C13.3436 8.51429 13.6988 8.45612 13.9607 8.43188C14.2406 8.40596 14.2847 8.43494 14.2523 8.42159L14.5378 7.72807L14.8234 7.03456C14.4943 6.89909 14.1323 6.90957 13.8224 6.93826C13.4944 6.96863 13.0761 7.03816 12.572 7.12138L12.6942 7.86136ZM11.9052 23.7991L11.3667 23.277C10.3123 24.3645 8.72724 24.9314 7.10353 24.9163C5.47998 24.9012 3.91137 24.3053 2.88492 23.1911L2.33331 23.6993L1.7817 24.2074C3.14076 25.6827 5.1351 26.3981 7.08961 26.4162C9.04396 26.4344 11.0521 25.7564 12.4437 24.3211L11.9052 23.7991ZM20.459 23.6199L20.2245 22.9075C17.4812 23.8107 15.1451 23.8951 12.3826 22.815L12.1095 23.5135L11.8364 24.212C14.9745 25.439 17.6746 25.3263 20.6936 24.3323L20.459 23.6199ZM12.0694 23.5812L12.7148 23.9632L12.7549 23.8956L12.1095 23.5135L11.4641 23.1314L11.4241 23.1991L12.0694 23.5812ZM11.9052 23.7991L12.4437 24.3211C12.5545 24.2068 12.6434 24.0839 12.7148 23.9632L12.0694 23.5812L11.4241 23.1991C11.4025 23.2354 11.3828 23.2604 11.3667 23.277L11.9052 23.7991ZM18.0409 15.8301L18.4619 15.2095C17.2495 14.3869 14.8328 13.4547 12.348 14.2523L12.5772 14.9664L12.8064 15.6805C14.706 15.0708 16.6411 15.7868 17.6198 16.4508L18.0409 15.8301ZM12.5772 14.9664L12.348 14.2523C11.1666 14.6315 10.0091 15.3918 8.99435 16.6768L9.58296 17.1416L10.1716 17.6065C11.0124 16.5416 11.925 15.9634 12.8064 15.6805L12.5772 14.9664ZM12.5772 14.9664L13.0918 14.4208C11.6047 13.0182 9.47846 12.3636 7.41707 12.3857C5.35581 12.4078 3.24688 13.1079 1.80163 14.5606L2.33331 15.0896L2.865 15.6185C3.97083 14.507 5.66811 13.9046 7.43315 13.8856C9.19806 13.8667 10.9182 14.4327 12.0626 15.512L12.5772 14.9664ZM14.5378 7.72807L14.2523 8.42159C14.3757 8.47239 14.5421 8.61489 14.7667 8.91227C14.8725 9.05229 14.9744 9.20295 15.085 9.36704C15.1904 9.52351 15.3087 9.69954 15.4291 9.85634L16.024 9.39962L16.6189 8.94289C16.5322 8.82995 16.441 8.69505 16.3288 8.52863C16.2217 8.36984 16.0977 8.18566 15.9636 8.00812C15.7085 7.67036 15.3389 7.24683 14.8234 7.03456L14.5378 7.72807ZM16.1194 3.20841L15.9178 3.93083C16.3142 4.04139 16.3612 4.06439 16.3921 4.08493C16.4268 4.10798 16.4713 4.14887 16.7386 4.47863L17.3212 4.00634L17.9038 3.53405C17.6926 3.27345 17.4914 3.01448 17.2224 2.83569C16.9496 2.65441 16.635 2.57362 16.3209 2.48599L16.1194 3.20841ZM13.3348 2.43167L13.5364 1.70925C12.5155 1.42447 11.7114 1.64845 11.0467 2.11875C10.4638 2.53117 9.94887 3.17813 9.53184 3.63079L10.0834 4.13896L10.635 4.64714C11.1764 4.0595 11.5023 3.63386 11.913 3.34324C12.242 3.11048 12.5844 3.00096 13.1333 3.15409L13.3348 2.43167ZM8.87501 6.2607L8.13615 6.38954C8.3382 7.54819 9.37869 8.12587 10.229 8.39033C11.1184 8.66697 12.1282 8.71496 12.8164 8.60134L12.6942 7.86136L12.572 7.12138C12.1202 7.19597 11.3465 7.16705 10.6745 6.95801C9.96321 6.73679 9.66411 6.42004 9.61386 6.13186L8.87501 6.2607Z" fill="#1B1616"/>
</svg>
